<svg width="47" height="25" viewBox="0 0 47 25" fill="none" xmlns="http://www.w3.org/2000/svg">
    <rect width="46.6667" height="25" rx="4" fill="white"/>
    <path d="M26.3717 6.49744H20.2461V17.5026H26.3717V6.49744Z" fill="#FF5A00"/>
    <path d="M20.6537 12C20.6537 9.76408 21.7049 7.77961 23.3178 6.49741C22.1307 5.56408 20.6333 5 19 5C15.1307 5 12 8.13074 12 12C12 15.8693 15.1307 19 19 19C20.6333 19 22.1307 18.4359 23.3178 17.5026C21.7026 16.2385 20.6537 14.2359 20.6537 12Z" fill="#EB001B"/>
    <path d="M34.6352 12C34.6352 15.8693 31.5044 19 27.6352 19C26.0018 19 24.5044 18.4359 23.3174 17.5026C24.9507 16.2181 25.9815 14.2359 25.9815 12C25.9815 9.76408 24.9303 7.77961 23.3174 6.49741C24.5022 5.56408 25.9996 5 27.6329 5C31.5044 5 34.6352 8.15113 34.6352 12Z" fill="#F79E1B"/>
</svg>
